<svg xmlns="http://www.w3.org/2000/svg" xmlns:svgjs="http://svgjs.dev/svgjs" xmlns:xlink="http://www.w3.org/1999/xlink" width="1000" height="1000" version="1.1" viewBox="0 0 1000 1000"><rect width="1000" height="1000" fill="#fff"/><g transform="matrix(0.7,0,0,0.7,149.57576354486798,448.5458681820973)"><svg xmlns="http://www.w3.org/2000/svg" xmlns:xlink="http://www.w3.org/1999/xlink" width="1000" height="146" data-background-color="#ffffff" preserveAspectRatio="xMidYMid meet" viewBox="0 0 396 58"><g id="tight-bounds" transform="matrix(1,0,0,1,0.23999662318897208,0.20097500428920512)"><svg width="395.52" height="57.598" viewBox="0 0 395.52 57.598"><g><svg width="395.52" height="57.598" viewBox="0 0 518.531 75.512"><g transform="matrix(1,0,0,1,123.01098105022479,19.542695498154988)"><svg width="395.52" height="36.426" viewBox="0 0 395.52 36.426"><g id="textblocktransform"><svg id="textblock" width="395.52" height="36.426" viewBox="0 0 395.52 36.426"><g><svg width="395.52" height="36.426" viewBox="0 0 395.52 36.426"><g transform="matrix(1,0,0,1,0,0)"><svg width="395.52" height="36.426" data-palette-color="#ca3433" viewBox="3 -29.45 327.18 29.95"><g id="text-0" class="undefined-text-0" data-fill-palette-color="primary"><path fill="#000" d="M28.2 0L9.65 0Q6.25 0 4.65-0.3 3.05-0.6 3.05-1L3.05-1 6.05-7.45Q7.2-7.25 10.8-7.08 14.4-6.9 20.15-6.9L20.15-6.9 24.1-6.9Q25.85-6.9 26.45-7.4 27.05-7.9 27.05-8.85L27.05-8.85 27.05-9.35Q27.05-10.55 26.45-11 25.85-11.45 24.1-11.45L24.1-11.45 12.65-11.45Q7.6-11.45 5.3-13.33 3-15.2 3-19.45L3-19.45 3-21.25Q3-23.45 3.83-25.3 4.65-27.15 6.65-28.28 8.65-29.4 12.15-29.4L12.15-29.4 28.75-29.4Q31.8-29.4 33.83-29.05 35.85-28.7 35.85-28.3L35.85-28.3 34.35-22.1Q32.95-22.25 29.08-22.43 25.2-22.6 19.25-22.6L19.25-22.6 15.65-22.65Q14.1-22.65 13.45-22.23 12.8-21.8 12.75-20.65L12.75-20.65 12.75-20.3Q12.75-19.15 13.45-18.7 14.15-18.25 15.7-18.25L15.7-18.25 26.7-18.25Q29.9-18.25 32.15-17.6 34.4-16.95 35.6-15.23 36.8-13.5 36.8-10.15L36.8-10.15 36.8-8.35Q36.8-4.6 34.88-2.3 32.95 0 28.2 0L28.2 0ZM53.85 0L44.3 0 44.3-25.4 43.8-29.4 55.9-29.4 64.7-11.9 73.7-29.4 85.15-29.4 85.15 0 75.6 0 75.6-16.85 75.05-16.85 72.95-11.45 69.3-3 60.2-3 56.4-11.45 54.35-16.85 53.85-16.85 53.85 0ZM100.05 0L89.55 0 104.2-29.4 117.2-29.4 131.8 0 121.05 0 118.6-5.35 102.8-5.35 100.05 0ZM110.45-22.9L105.55-12.25 115.8-12.25 110.95-22.9 110.45-22.9ZM168.64 0.5L168.64 0.5Q166.64 0.5 164.19-0.13 161.74-0.75 159.34-3.2L159.34-3.2 157.24-5.3Q155.74-6.8 154.37-7.75 152.99-8.7 151.24-9.18 149.49-9.65 146.84-9.65L146.84-9.65 146.44-9.65 146.44 0 136.69 0 136.69-25.4 136.19-29.45 159.34-29.45Q162.54-29.45 164.52-28.68 166.49-27.9 167.57-26.63 168.64-25.35 169.04-23.75 169.44-22.15 169.44-20.5L169.44-20.5 169.44-19.55Q169.44-16.55 167.92-14.18 166.39-11.8 163.09-10.8L163.09-10.8Q164.34-10.05 165.47-9.28 166.59-8.5 168.04-7.65L168.04-7.65Q169.69-6.7 171.12-6.28 172.54-5.85 173.49-5.75 174.44-5.65 174.59-5.65L174.59-5.65 173.09 0Q172.49 0.15 171.27 0.33 170.04 0.5 168.64 0.5ZM152.24-16.3L152.24-16.3Q153.49-16.3 154.67-16.35 155.84-16.4 156.79-16.5L156.79-16.5Q158.49-16.7 159.12-17.57 159.74-18.45 159.74-19.7L159.74-19.7 159.74-20.25Q159.74-21.35 159.12-21.95 158.49-22.55 156.84-22.55L156.84-22.55 146.44-22.55 146.44-16.5Q147.69-16.45 149.19-16.38 150.69-16.3 152.24-16.3ZM197.69 0L187.99 0 187.99-22.65 176.09-22.65 176.09-29.45 209.74-29.45 209.74-22.65 197.69-22.65 197.69 0ZM237.69 0.5L224.14 0.5Q219.14 0.5 216.56-1.85 213.99-4.2 213.99-9.45L213.99-9.45 213.99-29.4 223.74-29.4 223.74-10.35Q223.74-8 224.89-7.2 226.04-6.4 227.74-6.4L227.74-6.4 234.19-6.4Q235.79-6.4 236.99-7.23 238.19-8.05 238.19-10.35L238.19-10.35 238.19-29.4 247.79-29.4 247.79-9.45Q247.79-4.2 245.26-1.85 242.74 0.5 237.69 0.5L237.69 0.5ZM279.84 0L255.04 0 255.04-29.45 277.84-29.45Q282.54-29.45 284.69-27.58 286.84-25.7 286.84-23.05L286.84-23.05 286.84-21.55Q286.84-19.5 285.96-18.18 285.09-16.85 284.09-16.3L284.09-16.3Q286.29-15.6 287.59-13.88 288.89-12.15 288.89-9.35L288.89-9.35 288.89-8.45Q288.89-6.95 288.54-5.45 288.19-3.95 287.21-2.73 286.24-1.5 284.46-0.75 282.69 0 279.84 0L279.84 0ZM264.79-22.6L264.79-18.1 274.79-18.1Q276.09-18.1 276.59-18.65 277.09-19.2 277.09-20.15L277.09-20.15 277.09-20.65Q277.09-21.7 276.59-22.15 276.09-22.6 274.34-22.6L274.34-22.6 264.79-22.6ZM264.79-11.75L264.79-6.85 276.84-6.85Q278.14-6.85 278.64-7.33 279.14-7.8 279.14-8.85L279.14-8.85 279.14-9.75Q279.14-10.7 278.49-11.23 277.84-11.75 276.24-11.75L276.24-11.75 264.79-11.75ZM324.18 0L295.88 0 295.88-29.4 327.98-29.4 327.98-22.6 305.63-22.6 305.63-18.45 322.18-18.45 322.18-11.5 305.63-11.5 305.63-6.85 327.18-6.85 330.18-0.55Q330.18-0.35 328.83-0.18 327.48 0 324.18 0L324.18 0Z" data-fill-palette-color="primary"/></g></svg></g></svg></g></svg></g></svg></g><g><svg width="114.412" height="75.512" viewBox="0 0 114.412 75.512"><g><svg xmlns="http://www.w3.org/2000/svg" xmlns:xlink="http://www.w3.org/1999/xlink" id="icon-0" width="114.412" height="75.512" x="0" y="0" class="icon-icon-0" data-fill-palette-color="accent" enable-background="new 0 0 100 100" version="1.1" viewBox="0 17 100 66" xml:space="preserve"><g fill="#ca3433" data-fill-palette-color="accent" display="none"><path fill="#000" fill-rule="evenodd" d="M20.574 64.951h11.054c-0.673-1.912-1.123-3.93-1.318-6.023h-8.533c-7.975 0-14.44-6.473-14.44-14.456 0-7.983 6.466-14.456 14.44-14.456h21.862c7.977 0 14.441 6.473 14.441 14.456 0 6.489-4.268 11.978-10.146 13.806 0.824 1.5 2.18 3.689 3.862 5.385C59.568 60.76 65.1 53.266 65.1 44.472c0-11.31-9.158-20.479-20.458-20.479H20.574c-11.299 0-20.458 9.17-20.458 20.479C0.116 55.785 9.275 64.951 20.574 64.951z" clip-rule="evenodd" data-fill-palette-color="accent" display="inline"/><path fill="#000" fill-rule="evenodd" d="M35.015 56.52c0 11.311 9.16 20.48 20.458 20.48h24.068C90.841 77 100 67.83 100 56.52c0-11.312-9.159-20.48-20.458-20.48H68.471c0.677 1.913 1.13 3.931 1.33 6.023h8.738c7.974 0 14.439 6.474 14.439 14.457 0 7.984-6.466 14.457-14.439 14.457H56.677c-7.976 0-14.442-6.473-14.442-14.457 0-6.615 4.437-12.19 10.495-13.908-0.447-2.259-1.676-4.238-3.4-5.632C41.034 39.592 35.015 47.352 35.015 56.52z" clip-rule="evenodd" data-fill-palette-color="accent" display="inline"/></g><g fill="#ca3433" data-fill-palette-color="accent"><path fill="#000" d="M88 17H12C5.373 17 0 22.373 0 29v42c0 6.627 5.373 12 12 12h76c6.627 0 12-5.373 12-12V29C100 22.373 94.627 17 88 17zM42 62.802V35.913l23.287 13.445L42 62.802z" data-fill-palette-color="accent"/></g></svg></g></svg></g></svg></g></svg><rect width="395.52" height="57.598" fill="none" stroke="none" visibility="hidden"/></g></svg></g></svg>